<svg width="147" height="155" viewBox="0 0 147 155" fill="none"
  xmlns="http://www.w3.org/2000/svg">
  <path d="M22.5258 85.1046C17.6445 74.6444 17.8119 65.5858 21.9977 59.2697L29.2415 48.2464C33.7481 42.0034 33.4517 51.5361 45.1985 52.5508C68.7583 54.5175 96.0767 73.6144 106.047 94.9794C110.928 105.44 120.768 101.071 116.427 107.396L108.118 119.139C103.589 125.265 94.9554 128.466 83.3621 127.507C59.7273 125.448 32.496 106.47 22.5258 85.1046Z" fill="url(#paint0_linear_2_6389)"/>
  <path d="M90.5108 52.2398C114.34 68.7235 125.947 93.2324 116.436 106.982C106.924 120.732 79.8967 118.515 56.0676 102.031C32.2385 85.5477 20.6315 61.0388 30.1427 47.2892C39.654 33.5396 66.6816 35.7561 90.5108 52.2398Z" fill="url(#paint1_linear_2_6389)"/>
  <path d="M86.0291 58.7192C103.645 70.9052 112.222 89.0293 105.186 99.2006C98.1505 109.372 78.166 107.739 60.5497 95.5527C42.9335 83.3667 34.3564 65.2426 41.3924 55.0713C48.4283 44.9 68.4129 46.5332 86.0291 58.7192Z" fill="url(#paint2_linear_2_6389)"/>
  <path style="mix-blend-mode:multiply" d="M58.6593 51.7785C76.0755 53.2046 96.2723 67.3452 103.643 83.1401C106.053 87.7132 106.822 92.9743 105.822 98.0459C108.35 93.3632 108.263 87.0348 104.932 79.8957C97.6095 64.2054 77.4127 50.0648 59.9477 48.5341C48.6681 47.4287 41.3669 51.9824 39.552 59.4213C42.4861 54.0395 49.1545 50.9277 58.6593 51.7785Z" fill="url(#paint3_linear_2_6389)"/>
  <g style="mix-blend-mode:multiply">
    <g style="mix-blend-mode:multiply">
      <path d="M82.4105 127.378L83.3623 127.507L84.2131 127.555L92.3791 115.847L91.347 115.819L90.6008 115.722L82.4105 127.378Z" fill="#FDD65B"/>
    </g>
    <g style="mix-blend-mode:multiply">
      <path d="M96.843 126.438L105.101 114.655C104.421 114.972 103.593 115.04 102.814 115.213L94.5557 126.996C95.327 126.849 96.0904 126.662 96.843 126.438V126.438Z" fill="#FDD65B"/>
    </g>
    <g style="mix-blend-mode:multiply">
      <path d="M73.5972 125.758L81.7492 114.088L80.1732 113.645L72.009 125.289L73.5972 125.758Z" fill="#FDD65B"/>
    </g>
    <g style="mix-blend-mode:multiply">
      <path d="M55.2118 118.16L63.336 106.567L61.9762 105.768L53.852 117.362L55.2118 118.16Z" fill="#FDD65B"/>
    </g>
    <g style="mix-blend-mode:multiply">
      <path d="M64.0417 122.478L72.1798 110.847L70.6996 110.2L62.5616 121.831L64.0417 122.478Z" fill="#FDD65B"/>
    </g>
    <g style="mix-blend-mode:multiply">
      <path d="M46.9747 112.928L55.0989 101.335L53.8332 100.397L45.709 111.99L46.9747 112.928Z" fill="#FDD65B"/>
    </g>
    <g style="mix-blend-mode:multiply">
      <path d="M18.9934 72.4851L26.9833 61.0818C26.9031 60.2275 26.8613 59.3872 26.8578 58.5609L18.8818 69.9258C18.9899 70.7034 18.9393 71.6187 18.9934 72.4851Z" fill="#FDD65B"/>
    </g>
    <g style="mix-blend-mode:multiply">
      <path d="M30.1337 72.5414L29.3527 70.8678L21.3994 82.3496C21.6557 82.8987 21.912 83.4479 22.1805 84.0232L30.1337 72.5414Z" fill="#FDD65B"/>
    </g>
    <g style="mix-blend-mode:multiply">
      <path d="M26.1343 91.5404C26.3662 92.0373 26.6103 92.5603 27.0252 92.9717L35.1092 81.4289C34.8652 80.9059 34.6333 80.4091 34.2184 79.9976L26.1343 91.5404Z" fill="#FDD65B"/>
    </g>
    <g style="mix-blend-mode:multiply">
      <path d="M41.0522 88.91C40.6756 88.5125 40.3513 88.0906 40.0131 87.7071L31.9029 99.2621C32.2534 99.6718 32.5776 100.094 32.9542 100.491L41.0522 88.91Z" fill="#FDD65B"/>
    </g>
    <g style="mix-blend-mode:multiply">
      <path d="M38.3969 105.944C38.7874 106.303 39.1518 106.675 39.5685 107.022L47.6664 95.4404C47.2498 95.0935 46.8854 94.7222 46.5071 94.3892L38.3969 105.944Z" fill="#FDD65B"/>
    </g>
  </g>
  <path style="mix-blend-mode:multiply" d="M83.3621 127.507C94.9554 128.466 103.589 125.265 108.118 119.139L109.244 117.594C104.554 122.967 96.3746 125.638 85.6197 124.702C61.985 122.643 34.7153 103.651 24.7451 82.2856C19.8638 71.8254 20.0312 62.7668 24.217 56.4506L21.9977 59.2696C17.7996 65.5597 17.6567 74.6705 22.5258 85.1046C32.496 106.47 59.7273 125.448 83.3621 127.507Z" fill="url(#paint4_linear_2_6389)"/>
  <path style="mix-blend-mode:color-dodge" d="M90.2956 117.456C101.68 118.513 109.849 115.273 114.45 109.369C109.56 113.561 102.028 115.643 92.433 114.803C68.8348 112.822 41.6035 93.8437 31.6333 72.4787C26.4347 61.3386 26.9769 51.7867 31.9769 45.4409C24.8396 51.574 23.5285 62.3445 29.4594 75.0536C39.4295 96.4186 66.6608 115.397 90.2956 117.456Z" fill="url(#paint5_radial_2_6389)"/>
  <path style="mix-blend-mode:multiply" d="M84.6103 85.143C84.6103 85.143 84.3488 85.265 84.0943 85.6067C83.6546 85.8462 83.2004 86.0582 82.7345 86.2413C82.1205 86.481 81.4943 86.6881 80.8586 86.862C80.1071 87.0514 79.3385 87.1647 78.5643 87.2002L75.9406 81.5778L77.2499 81.3808C78.4789 81.1635 79.6939 80.873 80.8883 80.5109C81.835 80.2445 82.6949 79.7334 83.3813 79.029C83.9519 78.4115 84.2569 77.5943 84.2303 76.7539C84.2094 75.5638 83.9046 74.3959 83.3412 73.3474C82.6411 71.8433 81.6968 70.4654 80.5466 69.2697C79.4536 68.1251 78.2018 67.1435 76.8298 66.3547C75.4896 65.5561 74.0593 64.9193 72.569 64.4579C71.1128 63.9455 69.6089 63.5805 68.0799 63.3683L65.8344 58.5566L62.6789 58.2776L64.9854 63.2201C63.0686 63.2044 61.1565 63.4127 59.2881 63.8407C57.7022 64.1829 56.1981 64.8307 54.8599 65.7479L60.9285 71.9282C61.1156 71.689 61.3442 71.4853 61.6032 71.3267C62.1088 71.0058 62.6538 70.7515 63.2245 70.5701C63.969 70.2632 64.7353 70.012 65.5171 69.8187C66.4915 69.563 67.4914 69.4168 68.4982 69.3829L71.0609 74.8745L69.1398 75.2615C68.0222 75.4821 66.9312 75.8205 65.8849 76.2709C65.1183 76.558 64.4444 77.0486 63.9358 77.69C63.5059 78.2829 63.303 79.0104 63.364 79.7402C63.4467 80.7201 63.7191 81.6746 64.1659 82.5505C64.8242 83.9731 65.7039 85.2824 66.7722 86.4295C67.8184 87.5932 69.0048 88.6227 70.3043 89.4944C71.6107 90.3751 73.017 91.0978 74.4935 91.6475C75.9507 92.2263 77.4682 92.6398 79.0176 92.88L80.9701 97.0641L84.1256 97.3431L82.1731 93.159C83.8635 93.198 85.549 92.9601 87.1626 92.4547C88.4224 92.0555 89.6423 91.5395 90.8062 90.9136L84.6103 85.143ZM72.1331 84.4055C71.8158 83.7256 71.8175 83.1834 72.2011 82.8452C72.7368 82.386 73.3879 82.0822 74.0839 81.9665L76.4636 87.0659C75.5756 87.0252 74.7125 86.7597 73.9551 86.2944C73.1977 85.8291 72.5708 85.1792 72.1331 84.4055V84.4055ZM74.8685 72.0468C75.198 72.7529 75.1579 73.2811 74.6837 73.6298C74.0771 74.0662 73.3941 74.3849 72.6701 74.5694L70.3636 69.627C72.7207 69.8327 74.2217 70.6608 74.8685 72.0468V72.0468Z" fill="url(#paint6_linear_2_6389)"/>
  <path d="M86.1655 83.4936C86.0308 83.6833 85.8486 83.8341 85.6373 83.9312C85.2051 84.1854 84.7498 84.3978 84.2774 84.5658C83.6633 84.8094 83.0323 85.0081 82.3894 85.1603C81.6432 85.3597 80.8785 85.4818 80.1073 85.5246L77.4836 79.9023L78.7928 79.7053C80.0183 79.4789 81.2292 79.1797 82.419 78.8092C83.3626 78.5355 84.2207 78.0254 84.912 77.3273C85.4723 76.7035 85.7757 75.8906 85.7611 75.0523C85.7225 73.8646 85.4187 72.7007 84.872 71.6457C84.1742 70.1403 83.2296 68.762 82.0774 67.568C80.9843 66.4235 79.7326 65.4418 78.3605 64.653C77.0247 63.846 75.5934 63.2088 74.0998 62.7562C72.6399 62.2565 71.1372 61.8917 69.6106 61.6666L67.3774 56.8811L64.0911 56.6631L66.4098 61.6317C64.5013 61.5939 62.5957 61.7983 60.7386 62.2401C59.1439 62.5864 57.6313 63.2382 56.2843 64.1596L62.3529 70.3398C62.5401 70.1006 62.7686 69.8969 63.0276 69.7384C63.5244 69.4214 64.0608 69.1711 64.6228 68.994C65.3753 68.6812 66.1504 68.426 66.9415 68.2304C67.9146 67.9681 68.9152 67.8218 69.9226 67.7945L72.4854 73.2862L70.5903 73.661C69.4607 73.8761 68.3568 74.2098 67.2971 74.6564C66.5488 74.964 65.8912 75.4572 65.3864 76.0895C64.9415 76.675 64.7369 77.4084 64.8145 78.1396C64.8958 79.1198 65.1682 80.0745 65.6165 80.95C66.277 82.3821 67.1608 83.7003 68.235 84.8551C69.2387 86.0182 70.3763 87.0586 71.6241 87.9548C72.9305 88.8355 74.3368 89.5582 75.8134 90.1079C77.2494 90.6329 78.7365 91.0063 80.2502 91.2219L82.2028 95.406L85.489 95.624L83.5365 91.4399C85.2269 91.4789 86.9124 91.241 88.526 90.7356C89.7696 90.2909 90.969 89.7312 92.1086 89.0637L86.1655 83.4936ZM73.6882 82.7561C73.3587 82.0501 73.3727 81.534 73.7179 81.1819C74.2552 80.7252 74.9056 80.4216 75.6007 80.3032L77.9926 85.4287C77.108 85.3824 76.2494 85.1131 75.4968 84.6458C74.7443 84.1785 74.1221 83.5285 73.6882 82.7561V82.7561ZM76.4236 70.3974C76.7531 71.1035 76.713 71.6317 76.2388 71.9804C75.6323 72.4168 74.9493 72.7355 74.2252 72.9201L71.9188 67.9776C74.2758 68.1833 75.7769 69.0114 76.4236 70.3974Z" fill="url(#paint7_linear_2_6389)"/>
  <g style="mix-blend-mode:color-dodge">
    <path style="mix-blend-mode:color-dodge" d="M86.1655 83.4936C86.0308 83.6833 85.8486 83.8341 85.6373 83.9312C85.2051 84.1854 84.7498 84.3978 84.2774 84.5658C83.6633 84.8094 83.0323 85.0081 82.3894 85.1603C81.6432 85.3597 80.8785 85.4818 80.1073 85.5246L77.4836 79.9023L78.7928 79.7053C80.0183 79.4789 81.2292 79.1797 82.419 78.8092C83.3626 78.5355 84.2207 78.0254 84.912 77.3273C85.4723 76.7035 85.7757 75.8906 85.7611 75.0523C85.7225 73.8646 85.4187 72.7007 84.872 71.6457C84.1742 70.1403 83.2296 68.762 82.0774 67.568C80.9843 66.4235 79.7326 65.4418 78.3605 64.653C77.0247 63.846 75.5934 63.2088 74.0998 62.7562C72.6399 62.2565 71.1372 61.8917 69.6106 61.6666L67.3774 56.8811L64.0911 56.6631L66.4098 61.6317C64.5013 61.5939 62.5957 61.7983 60.7386 62.2401C59.1439 62.5864 57.6313 63.2382 56.2843 64.1596L62.3529 70.3398C62.5401 70.1006 62.7686 69.8969 63.0276 69.7384C63.5244 69.4214 64.0608 69.1711 64.6228 68.994C65.3753 68.6812 66.1504 68.426 66.9415 68.2304C67.9146 67.9681 68.9152 67.8218 69.9226 67.7945L72.4854 73.2862L70.5903 73.661C69.4607 73.8761 68.3568 74.2098 67.2971 74.6564C66.5488 74.964 65.8912 75.4572 65.3864 76.0895C64.9415 76.675 64.7369 77.4084 64.8145 78.1396C64.8958 79.1198 65.1682 80.0745 65.6165 80.95C66.277 82.3821 67.1608 83.7003 68.235 84.8551C69.2387 86.0182 70.3763 87.0586 71.6241 87.9548C72.9305 88.8355 74.3368 89.5582 75.8134 90.1079C77.2494 90.6329 78.7365 91.0063 80.2502 91.2219L82.2028 95.406L85.489 95.624L83.5365 91.4399C85.2269 91.4789 86.9124 91.241 88.526 90.7356C89.7696 90.2909 90.969 89.7312 92.1086 89.0637L86.1655 83.4936ZM73.6882 82.7561C73.3587 82.0501 73.3727 81.534 73.7179 81.1819C74.2552 80.7252 74.9056 80.4216 75.6007 80.3032L77.9926 85.4287C77.108 85.3824 76.2494 85.1131 75.4968 84.6458C74.7443 84.1785 74.1221 83.5285 73.6882 82.7561V82.7561ZM76.4236 70.3974C76.7531 71.1035 76.713 71.6317 76.2388 71.9804C75.6323 72.4168 74.9493 72.7355 74.2252 72.9201L71.9188 67.9776C74.2758 68.1833 75.7769 69.0114 76.4236 70.3974Z" fill="url(#paint8_radial_2_6389)"/>
  </g>
  <defs>
    <linearGradient id="paint0_linear_2_6389" x1="106.125" y1="120.738" x2="21.7885" y2="58.8896" gradientUnits="userSpaceOnUse">
      <stop stop-color="#FFBB96"/>
      <stop offset="0.23" stop-color="#FFFBC9"/>
      <stop offset="0.54" stop-color="#F9B673"/>
      <stop offset="0.64" stop-color="#F9B876"/>
      <stop offset="0.72" stop-color="#FABE81"/>
      <stop offset="0.81" stop-color="#FCC993"/>
      <stop offset="0.86" stop-color="#FED2A3"/>
      <stop offset="0.97" stop-color="#FFC28C"/>
    </linearGradient>
    <linearGradient id="paint1_linear_2_6389" x1="191.348" y1="64.5827" x2="100.502" y2="145.869" gradientUnits="userSpaceOnUse">
      <stop offset="0.04" stop-color="#FFBA78"/>
      <stop offset="0.4" stop-color="#FFC987"/>
      <stop offset="1" stop-color="#FEECA8"/>
    </linearGradient>
    <linearGradient id="paint2_linear_2_6389" x1="80.1853" y1="-1188.39" x2="2846.96" y2="-114.634" gradientUnits="userSpaceOnUse">
      <stop offset="0.04" stop-color="#FFBA78"/>
      <stop offset="0.4" stop-color="#FFC987"/>
      <stop offset="1" stop-color="#FEECA8"/>
    </linearGradient>
    <linearGradient id="paint3_linear_2_6389" x1="288981" y1="-137132" x2="289704" y2="-136043" gradientUnits="userSpaceOnUse">
      <stop stop-color="#FFBB96"/>
      <stop offset="0.23" stop-color="#FFFBC9"/>
      <stop offset="0.54" stop-color="#F9B673"/>
      <stop offset="0.64" stop-color="#F9B876"/>
      <stop offset="0.72" stop-color="#FABE81"/>
      <stop offset="0.81" stop-color="#FCC993"/>
      <stop offset="0.86" stop-color="#FED2A3"/>
      <stop offset="0.97" stop-color="#FFC28C"/>
    </linearGradient>
    <linearGradient id="paint4_linear_2_6389" x1="371680" y1="-173246" x2="372394" y2="-176192" gradientUnits="userSpaceOnUse">
      <stop stop-color="#FFBB96"/>
      <stop offset="0.23" stop-color="#FFFBC9"/>
      <stop offset="0.54" stop-color="#F9B673"/>
      <stop offset="0.64" stop-color="#F9B876"/>
      <stop offset="0.72" stop-color="#FABE81"/>
      <stop offset="0.81" stop-color="#FCC993"/>
      <stop offset="0.86" stop-color="#FED2A3"/>
      <stop offset="0.97" stop-color="#FFC28C"/>
    </linearGradient>
    <radialGradient id="paint5_radial_2_6389" cx="0" cy="0" r="1" gradientUnits="userSpaceOnUse" gradientTransform="translate(23.5086 107.038) rotate(154.983) scale(40.2751 40.2751)">
      <stop stop-color="white"/>
      <stop offset="1"/>
    </radialGradient>
    <linearGradient id="paint6_linear_2_6389" x1="69.3175" y1="-439.484" x2="333.904" y2="-878.779" gradientUnits="userSpaceOnUse">
      <stop stop-color="#FFBB96"/>
      <stop offset="0.23" stop-color="#FFFBC9"/>
      <stop offset="0.54" stop-color="#F9B673"/>
      <stop offset="0.64" stop-color="#F9B876"/>
      <stop offset="0.72" stop-color="#FABE81"/>
      <stop offset="0.81" stop-color="#FCC993"/>
      <stop offset="0.86" stop-color="#FED2A3"/>
      <stop offset="0.97" stop-color="#FFC28C"/>
    </linearGradient>
    <linearGradient id="paint7_linear_2_6389" x1="-25.0431" y1="-845.427" x2="136.562" y2="-920.842" gradientUnits="userSpaceOnUse">
      <stop offset="0.04" stop-color="#FFBA78"/>
      <stop offset="0.4" stop-color="#FFC987"/>
      <stop offset="1" stop-color="#FEECA8"/>
    </linearGradient>
    <radialGradient id="paint8_radial_2_6389" cx="0" cy="0" r="1" gradientUnits="userSpaceOnUse" gradientTransform="translate(-5895.83 -88357) rotate(-25.0166) scale(278.749 543.538)">
      <stop stop-color="#F49587"/>
      <stop offset="0.12" stop-color="#BD7368"/>
      <stop offset="0.24" stop-color="#8B554D"/>
      <stop offset="0.36" stop-color="#603B35"/>
      <stop offset="0.48" stop-color="#3E2622"/>
      <stop offset="0.61" stop-color="#231513"/>
      <stop offset="0.74" stop-color="#0F0908"/>
      <stop offset="0.86" stop-color="#040202"/>
      <stop offset="1"/>
    </radialGradient>
  </defs>
</svg>
