<svg width="114" height="122" viewBox="0 0 114 122" fill="none"
  xmlns="http://www.w3.org/2000/svg">
  <path d="M98.2272 63.4196C101.419 54.6428 100.641 47.3541 96.8191 42.5608L90.1986 34.1909C86.1235 29.4794 87.039 37.1411 77.6439 38.7927C58.7958 42.05 38.1344 59.38 31.6156 77.3065C28.424 86.0832 20.1838 83.2606 24.1313 88.05L31.6613 96.9245C35.7465 101.54 42.9315 103.507 52.2069 101.911C71.1089 98.5743 91.7084 81.3461 98.2272 63.4196Z" fill="url(#paint0_linear_2_6412)"/>
  <path d="M41.103 41.7583C23.0683 56.7345 15.4535 77.311 24.0949 87.7172C32.7363 98.1234 54.3615 94.4186 72.3962 79.4424C90.4309 64.4662 98.0457 43.8897 89.4043 33.4835C80.7629 23.0774 59.1377 26.7821 41.103 41.7583Z" fill="url(#paint1_linear_2_6412)"/>
  <path d="M45.1748 46.6623C31.8422 57.7339 26.2161 72.9496 32.6086 80.6475C39.0011 88.3455 54.9914 85.6107 68.324 74.5392C81.6566 63.4677 87.2827 48.252 80.8902 40.554C74.4977 32.856 58.5074 35.5908 45.1748 46.6623Z" fill="url(#paint2_linear_2_6412)"/>
  <path style="mix-blend-mode:multiply" d="M66.7404 39.1256C52.8053 41.5112 37.5317 54.3412 32.7124 67.594C31.0947 71.4507 30.8482 75.7454 32.0142 79.7618C29.6445 76.1673 29.2655 71.0608 31.4438 65.0707C36.2311 51.9056 51.5048 39.0757 65.4718 36.6023C74.4839 34.9108 80.6915 38.0625 82.6822 43.929C79.9355 39.7999 74.3403 37.7653 66.7404 39.1256Z" fill="url(#paint3_linear_2_6412)"/>
  <g style="mix-blend-mode:multiply">
    <g style="mix-blend-mode:multiply">
      <path d="M52.9646 101.739L52.2066 101.911L51.5244 102.011L44.1121 93.154L44.9419 93.0582L45.5363 92.9266L52.9646 101.739Z" fill="#FDD65B"/>
    </g>
    <g style="mix-blend-mode:multiply">
      <path d="M41.2662 102.007L33.7741 93.0963C34.3446 93.3037 35.0168 93.2997 35.6571 93.3835L43.1492 102.294C42.5171 102.23 41.8887 102.134 41.2662 102.007V102.007Z" fill="#FDD65B"/>
    </g>
    <g style="mix-blend-mode:multiply">
      <path d="M59.9526 99.8086L52.5543 90.982L53.793 90.5132L61.1993 99.3179L59.9526 99.8086Z" fill="#FDD65B"/>
    </g>
    <g style="mix-blend-mode:multiply">
      <path d="M74.2307 92.3805L66.8603 83.6136L67.8995 82.8736L75.2699 91.6404L74.2307 92.3805Z" fill="#FDD65B"/>
    </g>
    <g style="mix-blend-mode:multiply">
      <path d="M67.4209 96.4871L60.0365 87.6904L61.1834 87.0641L68.5678 95.8608L67.4209 96.4871Z" fill="#FDD65B"/>
    </g>
    <g style="mix-blend-mode:multiply">
      <path d="M80.4978 87.5787L73.1274 78.8119L74.0809 77.9661L81.4513 86.7329L80.4978 87.5787Z" fill="#FDD65B"/>
    </g>
    <g style="mix-blend-mode:multiply">
      <path d="M100.178 52.9983L92.9296 44.3751C92.9336 43.6809 92.9077 43.0007 92.8518 42.3345L100.087 50.9278C100.055 51.5621 100.16 52.2962 100.178 52.9983Z" fill="#FDD65B"/>
    </g>
    <g style="mix-blend-mode:multiply">
      <path d="M91.204 53.8347L91.7146 52.4304L98.9394 61.1194C98.7719 61.5802 98.6043 62.041 98.4288 62.5237L91.204 53.8347Z" fill="#FDD65B"/>
    </g>
    <g style="mix-blend-mode:multiply">
      <path d="M95.7758 68.8626C95.6242 69.2795 95.4646 69.7184 95.1594 70.0794L87.8249 61.3505C87.9844 60.9116 88.136 60.4948 88.4412 60.1337L95.7758 68.8626Z" fill="#FDD65B"/>
    </g>
    <g style="mix-blend-mode:multiply">
      <path d="M83.5662 67.8014C83.8415 67.4543 84.0729 67.0913 84.3183 66.7582L91.6747 75.4951C91.4214 75.8501 91.19 76.2132 90.9147 76.5602L83.5662 67.8014Z" fill="#FDD65B"/>
    </g>
    <g style="mix-blend-mode:multiply">
      <path d="M86.9153 81.3413C86.6261 81.6585 86.3588 81.9836 86.0476 82.2928L78.6991 73.5339C79.0103 73.2247 79.2776 72.8996 79.5588 72.6044L86.9153 81.3413Z" fill="#FDD65B"/>
    </g>
  </g>
  <path style="mix-blend-mode:multiply" d="M52.2069 101.911C42.9315 103.507 35.7465 101.54 31.6613 96.9245L30.644 95.7596C34.805 99.757 41.587 101.329 50.1883 99.811C69.0902 96.4739 89.7197 79.2317 96.2385 61.3052C99.4301 52.5284 98.6522 45.2397 94.8303 40.4464L96.8191 42.5608C100.649 47.3322 101.411 54.6648 98.2272 63.4196C91.7084 81.3461 71.1089 98.5743 52.2069 101.911Z" fill="url(#paint4_linear_2_6412)"/>
  <path style="mix-blend-mode:color-dodge" d="M45.9054 94.3029C36.8055 95.9624 29.9916 93.9318 25.8645 89.4995C30.1033 92.5315 36.3208 93.6745 43.9945 92.3161C62.8725 89.0449 83.4721 71.8166 89.9909 53.8901C93.3899 44.5429 92.2749 36.8832 87.7948 32.1238C93.9824 36.5601 95.8035 45.1473 91.9258 55.8111C85.4069 73.7375 64.8074 90.9658 45.9054 94.3029Z" fill="url(#paint5_radial_2_6412)"/>
  <path style="mix-blend-mode:multiply" d="M48.1938 67.8572C48.1938 67.8572 48.4132 67.937 48.6426 68.1943C49.014 68.3561 49.3951 68.4947 49.7836 68.6092C50.2954 68.7588 50.8148 68.8813 51.3395 68.9763C51.9586 69.0756 52.5861 69.1124 53.2125 69.086L54.928 64.3685L53.8588 64.3027C52.8529 64.2148 51.8531 64.0669 50.8648 63.8598C50.0828 63.7123 49.3536 63.3615 48.7504 62.8425C48.2466 62.3853 47.9429 61.7484 47.9046 61.0692C47.837 60.1086 47.9998 59.1457 48.3794 58.2606C48.8369 56.9987 49.5001 55.8212 50.3422 54.7759C51.1419 53.7759 52.081 52.8959 53.1308 52.1628C54.1542 51.424 55.2618 50.8093 56.4301 50.3317C57.5673 49.8154 58.7535 49.4144 59.9707 49.1349L61.4389 45.0976L63.9622 44.6488L62.4542 48.7958C63.9979 48.6471 65.5536 48.6792 67.0899 48.8916C68.3923 49.0548 69.6504 49.4701 70.7941 50.1143L66.3418 55.526C66.174 55.3465 65.9754 55.1985 65.7554 55.0891C65.3251 54.8663 64.8679 54.7001 64.395 54.5944C63.7732 54.3999 63.1378 54.2519 62.494 54.1516C61.6906 54.0146 60.8743 53.9678 60.0605 54.012L58.3849 58.6197L59.9607 58.7953C60.877 58.8938 61.7804 59.089 62.6556 59.3778C63.2938 59.5547 63.8717 59.9022 64.3271 60.3831C64.7157 60.8304 64.9309 61.4023 64.9335 61.9948C64.9364 62.7904 64.7847 63.579 64.4867 64.3167C64.0571 65.5099 63.4411 66.6275 62.6615 67.6279C61.901 68.64 61.0179 69.5539 60.0325 70.3487C59.042 71.1512 57.96 71.8335 56.809 72.3813C55.6757 72.9512 54.482 73.3922 53.2504 73.6958L51.9738 77.2065L49.4504 77.6553L50.7271 74.1446C49.3675 74.296 47.9922 74.2239 46.6559 73.9311C45.6122 73.6988 44.5924 73.3696 43.6099 72.9477L48.1938 67.8572ZM58.1973 66.3772C58.4048 65.8067 58.3649 65.3699 58.0318 65.1245C57.5675 64.7925 57.0211 64.5938 56.452 64.55L54.8961 68.8287C55.6088 68.7328 56.2856 68.4576 56.863 68.0289C57.4404 67.6001 57.8995 67.0318 58.1973 66.3772V66.3772ZM55.1156 56.611C54.9001 57.2035 54.9699 57.6264 55.3769 57.8737C55.8966 58.1824 56.4697 58.3908 57.0664 58.4881L58.5744 54.3411C56.6894 54.6742 55.5384 55.4481 55.1156 56.611V56.611Z" fill="url(#paint6_linear_2_6412)"/>
  <path d="M46.8234 66.6383C46.9454 66.7816 47.1029 66.8903 47.2802 66.9535C47.6465 67.1277 48.0285 67.2666 48.4211 67.3684C48.9334 67.5211 49.456 67.6365 49.985 67.7135C50.6005 67.8213 51.2255 67.8654 51.85 67.8452L53.5655 63.1277L52.4964 63.0618C51.4926 62.9664 50.4955 62.8112 49.5103 62.5971C48.7304 62.4434 48.0026 62.0933 47.3959 61.5797C46.9001 61.1167 46.5979 60.4832 46.5501 59.8064C46.4969 58.8466 46.6591 57.8869 47.0249 56.9979C47.4804 55.735 48.1438 54.5572 48.9877 53.5131C49.7874 52.5131 50.7265 51.6331 51.7763 50.9001C52.7956 50.1548 53.904 49.5397 55.0756 49.0689C56.2167 48.5625 57.4019 48.1619 58.6162 47.8721L60.0764 43.8568L62.7094 43.4478L61.1934 47.6168C62.7289 47.4508 64.2792 47.4803 65.8072 47.7046C67.117 47.8705 68.3824 48.2884 69.5333 48.9353L65.0811 54.347C64.9133 54.1675 64.7147 54.0195 64.4946 53.9101C64.0717 53.69 63.6217 53.5263 63.1562 53.4234C62.5275 53.2248 61.8847 53.0741 61.2333 52.9726C60.4304 52.8303 59.6136 52.7834 58.7997 52.833L57.1241 57.4408L58.678 57.6083C59.6037 57.7015 60.517 57.8921 61.4028 58.1768C62.0277 58.3716 62.5927 58.7224 63.0444 59.1961C63.4446 59.6365 63.6615 60.213 63.6508 60.8079C63.6549 61.6036 63.5031 62.3924 63.204 63.1297C62.7733 64.3308 62.1546 65.4559 61.3708 66.4629C60.6445 67.4715 59.8015 68.3908 58.8595 69.2016C57.8691 70.0041 56.787 70.6864 55.636 71.2342C54.5159 71.7593 53.3439 72.1657 52.1393 72.447L50.8626 75.9577L48.2296 76.3666L49.5062 72.8559C48.1466 73.0073 46.7714 72.9352 45.435 72.6424C44.4012 72.3723 43.3948 72.0064 42.429 71.5493L46.8234 66.6383ZM56.8269 65.1583C57.0423 64.5659 56.9944 64.151 56.6912 63.8917C56.2258 63.5617 55.6801 63.3633 55.1114 63.3172L53.5476 67.6178C54.2572 67.5176 54.93 67.2396 55.5034 66.8096C56.0768 66.3796 56.532 65.8116 56.8269 65.1583V65.1583ZM53.7451 55.3922C53.5297 55.9846 53.5995 56.4075 54.0064 56.6548C54.5262 56.9635 55.0993 57.1719 55.6959 57.2692L57.2039 53.1222C55.3189 53.4553 54.168 54.2292 53.7451 55.3922Z" fill="url(#paint7_linear_2_6412)"/>
  <g style="mix-blend-mode:color-dodge">
    <path style="mix-blend-mode:color-dodge" d="M46.8233 66.6381C46.9454 66.7814 47.1029 66.89 47.2801 66.9533C47.6464 67.1274 48.0285 67.2664 48.4211 67.3682C48.9333 67.5209 49.456 67.6362 49.985 67.7133C50.6005 67.821 51.2255 67.8652 51.85 67.8449L53.5655 63.1274L52.4963 63.0616C51.4926 62.9662 50.4955 62.811 49.5102 62.5968C48.7303 62.4432 48.0026 62.093 47.3958 61.5795C46.9 61.1165 46.5979 60.4829 46.5501 59.8062C46.4969 58.8463 46.6591 57.8867 47.0249 56.9976C47.4804 55.7348 48.1438 54.557 48.9877 53.5129C49.7874 52.5129 50.7265 51.6329 51.7763 50.8998C52.7956 50.1546 53.9039 49.5394 55.0756 49.0687C56.2167 48.5623 57.4019 48.1617 58.6162 47.8719L60.0764 43.8565L62.7094 43.4476L61.1934 47.6166C62.7288 47.4506 64.2791 47.4801 65.8072 47.7043C67.117 47.8702 68.3823 48.2882 69.5333 48.9351L65.081 54.3467C64.9133 54.1672 64.7146 54.0193 64.4946 53.9099C64.0717 53.6897 63.6217 53.5261 63.1561 53.4232C62.5275 53.2246 61.8847 53.0739 61.2332 52.9724C60.4304 52.8301 59.6135 52.7832 58.7997 52.8327L57.1241 57.4405L58.678 57.6081C59.6037 57.7013 60.517 57.8919 61.4028 58.1766C62.0277 58.3714 62.5927 58.7222 63.0444 59.1959C63.4445 59.6363 63.6614 60.2127 63.6508 60.8076C63.6549 61.6033 63.5031 62.3921 63.204 63.1295C62.7733 64.3306 62.1545 65.4557 61.3708 66.4626C60.6444 67.4713 59.8015 68.3905 58.8594 69.2014C57.869 70.0039 56.787 70.6862 55.636 71.234C54.5159 71.759 53.3439 72.1655 52.1392 72.4467L50.8626 75.9574L48.2296 76.3663L49.5062 72.8557C48.1466 73.0071 46.7713 72.935 45.435 72.6422C44.4012 72.3721 43.3948 72.0061 42.4289 71.5491L46.8233 66.6381ZM56.8269 65.1581C57.0423 64.5656 56.9944 64.1507 56.6912 63.8914C56.2258 63.5615 55.6801 63.363 55.1114 63.3169L53.5475 67.6175C54.2572 67.5174 54.93 67.2394 55.5034 66.8094C56.0767 66.3794 56.532 65.8113 56.8269 65.1581V65.1581ZM53.7451 55.3919C53.5296 55.9844 53.5994 56.4072 54.0064 56.6546C54.5262 56.9632 55.0992 57.1716 55.6959 57.269L57.2039 53.122C55.3189 53.4551 54.1679 54.229 53.7451 55.3919Z" fill="url(#paint8_radial_2_6412)"/>
  </g>
  <defs>
    <linearGradient id="paint0_linear_2_6412" x1="33.3808" y1="98.0715" x2="96.9607" y2="42.2397" gradientUnits="userSpaceOnUse">
      <stop stop-color="#FFBB96"/>
      <stop offset="0.23" stop-color="#FFFBC9"/>
      <stop offset="0.54" stop-color="#F9B673"/>
      <stop offset="0.64" stop-color="#F9B876"/>
      <stop offset="0.72" stop-color="#FABE81"/>
      <stop offset="0.81" stop-color="#FCC993"/>
      <stop offset="0.86" stop-color="#FED2A3"/>
      <stop offset="0.97" stop-color="#FFC28C"/>
    </linearGradient>
    <linearGradient id="paint1_linear_2_6412" x1="-39.2896" y1="58.8634" x2="39.6963" y2="117.927" gradientUnits="userSpaceOnUse">
      <stop offset="0.04" stop-color="#FFBA78"/>
      <stop offset="0.4" stop-color="#FFC987"/>
      <stop offset="1" stop-color="#FEECA8"/>
    </linearGradient>
    <linearGradient id="paint2_linear_2_6412" x1="-38.6361" y1="-958.841" x2="-2192.26" y2="102.924" gradientUnits="userSpaceOnUse">
      <stop offset="0.04" stop-color="#FFBA78"/>
      <stop offset="0.4" stop-color="#FFC987"/>
      <stop offset="1" stop-color="#FEECA8"/>
    </linearGradient>
    <linearGradient id="paint3_linear_2_6412" x1="-242523" y1="-90014" x2="-243029" y2="-89084.8" gradientUnits="userSpaceOnUse">
      <stop stop-color="#FFBB96"/>
      <stop offset="0.23" stop-color="#FFFBC9"/>
      <stop offset="0.54" stop-color="#F9B673"/>
      <stop offset="0.64" stop-color="#F9B876"/>
      <stop offset="0.72" stop-color="#FABE81"/>
      <stop offset="0.81" stop-color="#FCC993"/>
      <stop offset="0.86" stop-color="#FED2A3"/>
      <stop offset="0.97" stop-color="#FFC28C"/>
    </linearGradient>
    <linearGradient id="paint4_linear_2_6412" x1="-311737" y1="-113250" x2="-312521" y2="-115573" gradientUnits="userSpaceOnUse">
      <stop stop-color="#FFBB96"/>
      <stop offset="0.23" stop-color="#FFFBC9"/>
      <stop offset="0.54" stop-color="#F9B673"/>
      <stop offset="0.64" stop-color="#F9B876"/>
      <stop offset="0.72" stop-color="#FABE81"/>
      <stop offset="0.81" stop-color="#FCC993"/>
      <stop offset="0.86" stop-color="#FED2A3"/>
      <stop offset="0.97" stop-color="#FFC28C"/>
    </linearGradient>
    <radialGradient id="paint5_radial_2_6412" cx="0" cy="0" r="1" gradientUnits="userSpaceOnUse" gradientTransform="translate(98.992 81.1659) rotate(19.9834) scale(32.5848 32.5848)">
      <stop stop-color="white"/>
      <stop offset="1"/>
    </radialGradient>
    <linearGradient id="paint6_linear_2_6412" x1="23.2804" y1="-356.043" x2="-221.141" y2="-691.306" gradientUnits="userSpaceOnUse">
      <stop stop-color="#FFBB96"/>
      <stop offset="0.23" stop-color="#FFFBC9"/>
      <stop offset="0.54" stop-color="#F9B673"/>
      <stop offset="0.64" stop-color="#F9B876"/>
      <stop offset="0.72" stop-color="#FABE81"/>
      <stop offset="0.81" stop-color="#FCC993"/>
      <stop offset="0.86" stop-color="#FED2A3"/>
      <stop offset="0.97" stop-color="#FFC28C"/>
    </linearGradient>
    <linearGradient id="paint7_linear_2_6412" x1="70.5147" y1="-689.906" x2="-65.0813" y2="-739.214" gradientUnits="userSpaceOnUse">
      <stop offset="0.04" stop-color="#FFBA78"/>
      <stop offset="0.4" stop-color="#FFC987"/>
      <stop offset="1" stop-color="#FEECA8"/>
    </linearGradient>
    <radialGradient id="paint8_radial_2_6412" cx="0" cy="0" r="1" gradientUnits="userSpaceOnUse" gradientTransform="translate(-1409.66 -71635.3) rotate(-160.017) scale(225.523 439.752)">
      <stop stop-color="#F49587"/>
      <stop offset="0.12" stop-color="#BD7368"/>
      <stop offset="0.24" stop-color="#8B554D"/>
      <stop offset="0.36" stop-color="#603B35"/>
      <stop offset="0.48" stop-color="#3E2622"/>
      <stop offset="0.61" stop-color="#231513"/>
      <stop offset="0.74" stop-color="#0F0908"/>
      <stop offset="0.86" stop-color="#040202"/>
      <stop offset="1"/>
    </radialGradient>
  </defs>
</svg>
