<svg width="41" height="40" viewBox="0 0 41 40" fill="none"
  xmlns="http://www.w3.org/2000/svg">
  <path d="M20.1943 40H20.05C10.7222 39.9761 4.47159 38.0406 3.17339 36.8459C1.80306 35.6272 0 29.319 0 20C0 10.7049 1.80306 4.37276 3.17339 3.15412C4.47159 1.95938 10.7462 0.0238949 20.05 0H20.1943C29.5221 0.0238949 35.7727 1.95938 37.0709 3.15412C38.4412 4.37276 40.2443 10.7049 40.2443 20C40.2443 29.2951 38.4412 35.6272 37.0709 36.8459C35.7727 38.0645 29.5221 40 20.1943 40Z" fill="url(#paint0_linear_2_5229)"/>
  <path d="M20.1943 40H20.05C10.7222 39.9761 4.47159 38.0406 3.17339 36.8459C1.80306 35.6272 0 29.319 0 20C0 10.7049 1.80306 4.37276 3.17339 3.15412C4.47159 1.95938 10.7462 0.0238949 20.05 0H20.1943C29.5221 0.0238949 35.7727 1.95938 37.0709 3.15412C38.4412 4.37276 40.2443 10.7049 40.2443 20C40.2443 29.2951 38.4412 35.6272 37.0709 36.8459C35.7727 38.0645 29.5221 40 20.1943 40Z" fill="white"/>
  <path d="M29.4015 21.194L28.6322 11.8511H23.9923C23.9923 11.8511 20.4583 19.0434 20.1458 20.0231H20.0977L16.3714 11.8511H11.7075L10.9382 19.9514L10.2891 28.1713H13.1259C14.352 28.1713 14.8328 27.6456 14.9289 26.3553C14.9289 26.3553 15.4097 18.8284 15.3376 17.7292H15.3857L15.53 18.231C15.7223 18.9001 18.3668 25.3278 18.3668 25.3278H21.8527C21.8527 25.3278 24.4972 18.9956 24.8337 17.7292H24.8818L25.2905 26.3553C25.3867 27.6456 25.8915 28.1713 27.0936 28.1713H29.9304L29.4015 21.194Z" fill="#0361F0"/>
  <defs>
    <linearGradient id="paint0_linear_2_5229" x1="3.17769" y1="3.16045" x2="36.8672" y2="37.0558" gradientUnits="userSpaceOnUse">
      <stop stop-color="#05C2FF"/>
      <stop offset="1" stop-color="#0357EE"/>
    </linearGradient>
  </defs>
</svg>
